<svg width="36" height="36" viewBox="0 0 36 36" fill="none" xmlns="http://www.w3.org/2000/svg">
<path d="M24.5195 9.10993C24.498 6.58131 24.3577 5.18732 23.4382 4.26806C22.353 3.18311 20.6065 3.18311 17.1134 3.18311H12.6673C9.17423 3.18311 7.42767 3.18311 6.3425 4.26806C5.25732 5.35302 5.25732 7.09923 5.25732 10.5916V25.4087C5.25732 28.9011 5.25732 30.6473 6.3425 31.7323C7.42767 32.8173 9.17423 32.8173 12.6673 32.8173H17.1134C20.6065 32.8173 22.353 32.8173 23.4382 31.7323C24.3577 30.8129 24.498 29.419 24.5195 26.8903" fill="white"/>
<path d="M24.5195 9.10993C24.498 6.58131 24.3577 5.18732 23.4382 4.26806C22.353 3.18311 20.6065 3.18311 17.1134 3.18311H12.6673C9.17423 3.18311 7.42767 3.18311 6.3425 4.26806C5.25732 5.35302 5.25732 7.09923 5.25732 10.5916V25.4087C5.25732 28.9011 5.25732 30.6473 6.3425 31.7323C7.42767 32.8173 9.17423 32.8173 12.6673 32.8173H17.1134C20.6065 32.8173 22.353 32.8173 23.4382 31.7323C24.3577 30.8129 24.498 29.419 24.5195 26.8903" stroke="#D32F2F" stroke-width="2" stroke-linecap="round" stroke-linejoin="round"/>
<path d="M28.372 18.05H18M25.4085 13.5549C25.4085 13.5549 28.4269 15.9952 29.5881 17.3382C29.7748 17.5542 29.8631 17.7966 29.8529 18.0375C29.8437 18.2536 29.7554 18.4686 29.588 18.6621C28.4265 20.005 25.4085 22.4452 25.4085 22.4452" stroke="#D32F2F" stroke-width="2" stroke-linecap="round" stroke-linejoin="round"/>
<path d="M18.7408 3.18311H12.814L13.5548 4.66481H17.9999L18.7408 3.18311Z" fill="white" stroke="#D32F2F" stroke-width="2" stroke-linecap="round" stroke-linejoin="round"/>
</svg>
