<svg width="37" height="37" viewBox="0 0 37 37" fill="none" xmlns="http://www.w3.org/2000/svg">
<path d="M20.9636 4.5119C20.0061 4.31775 19.015 4.21582 18.0002 4.21582C9.81693 4.21582 3.18311 10.8424 3.18311 19.0166C3.18311 27.1908 9.81693 33.8174 18.0002 33.8174C26.1834 33.8174 32.8173 27.1908 32.8173 19.0166C32.8173 18.003 32.7152 17.0129 32.5209 16.0565" fill="white"/>
<path d="M20.9636 4.5119C20.0061 4.31775 19.015 4.21582 18.0002 4.21582C9.81693 4.21582 3.18311 10.8424 3.18311 19.0166C3.18311 27.1908 9.81693 33.8174 18.0002 33.8174C26.1834 33.8174 32.8173 27.1908 32.8173 19.0166C32.8173 18.003 32.7152 17.0129 32.5209 16.0565" stroke="#D32F2F" stroke-width="2" stroke-linecap="round"/>
<path d="M18.0005 14.5763C16.3638 14.5763 15.0371 15.5703 15.0371 16.7963C15.0371 18.0225 16.3638 19.0165 18.0005 19.0165C19.6372 19.0165 20.9639 20.0106 20.9639 21.2366C20.9639 22.4627 19.6372 23.4568 18.0005 23.4568M18.0005 14.5763C19.2908 14.5763 20.3884 15.1941 20.7953 16.0564M18.0005 14.5763V13.0962M18.0005 23.4568C16.7103 23.4568 15.6126 22.839 15.2057 21.9767M18.0005 23.4568V24.9368" stroke="#D32F2F" stroke-width="2" stroke-linecap="round"/>
<path d="M27.7721 9.21216L33.9594 3.02807M35.1807 8.43991L35.0055 3.86426C35.0055 2.7858 34.3608 2.11386 33.1866 2.02911L28.5576 1.81176" stroke="#D32F2F" stroke-width="2" stroke-linecap="round" stroke-linejoin="round"/>
</svg>
