<svg width="36" height="36" viewBox="0 0 36 36" fill="none" xmlns="http://www.w3.org/2000/svg">
<path d="M3.87111 14.0642C3.50285 14.0642 3.1668 13.7657 3.18372 13.3755C3.28287 11.0906 3.56066 9.60316 4.33896 8.42648C4.78673 7.74952 5.34292 7.16073 5.9824 6.68672C7.71084 5.40552 10.1492 5.40552 15.0259 5.40552H20.9746C25.8512 5.40552 28.2896 5.40552 30.018 6.68672C30.6575 7.16073 31.2136 7.74952 31.6614 8.42648C32.4397 9.60303 32.7175 11.0903 32.8167 13.3748C32.8336 13.7654 32.4971 14.0642 32.1284 14.0642C30.0751 14.0642 28.4105 15.8264 28.4105 18C28.4105 20.1737 30.0751 21.9357 32.1284 21.9357C32.4971 21.9357 32.8336 22.2346 32.8167 22.6253C32.7175 24.9098 32.4397 26.397 31.6614 27.5736C31.2136 28.2505 30.6575 28.8393 30.018 29.3133C28.2896 30.5945 25.8512 30.5945 20.9746 30.5945H15.0259C10.1492 30.5945 7.71084 30.5945 5.9824 29.3133C5.34292 28.8393 4.78673 28.2505 4.33896 27.5736C3.56066 26.3969 3.28287 24.9094 3.18372 22.6246C3.1668 22.2343 3.50285 21.9357 3.87111 21.9357C5.92445 21.9357 7.589 20.1737 7.589 18C7.589 15.8264 5.92445 14.0642 3.87111 14.0642Z" fill="white" stroke="#D32F2F" stroke-width="2" stroke-linejoin="round"/>
</svg>
