<svg width="36" height="36" viewBox="0 0 36 36" fill="none" xmlns="http://www.w3.org/2000/svg">
<path d="M28.3718 21.1116C28.3718 20.8223 28.3718 15.0367 28.3718 15.0367C28.3718 9.44889 28.3716 6.65491 26.6358 4.91898C24.8998 3.18311 22.1059 3.18311 16.5181 3.18311C10.9304 3.18311 8.13649 3.18319 6.40056 4.91906C4.66468 6.65497 4.66465 9.44883 4.66461 15.0366L4.66455 21.7044C4.66451 26.5754 4.66449 29.011 6.00976 30.6503C6.25608 30.9504 6.5313 31.2256 6.83144 31.472C8.47072 32.8173 20.2411 32.8172 25.1121 32.8172" fill="white"/>
<path d="M28.3718 21.1116C28.3718 20.8223 28.3718 15.0367 28.3718 15.0367C28.3718 9.44889 28.3716 6.65491 26.6358 4.91898C24.8998 3.18311 22.1059 3.18311 16.5181 3.18311C10.9304 3.18311 8.13649 3.18319 6.40056 4.91906C4.66468 6.65497 4.66465 9.44883 4.66461 15.0366L4.66455 21.7044C4.66451 26.5754 4.66449 29.011 6.00976 30.6503C6.25608 30.9504 6.5313 31.2256 6.83144 31.472C8.47072 32.8173 20.2411 32.8173 25.1121 32.8173" stroke="#D32F2F" stroke-width="2" stroke-linecap="round" stroke-linejoin="round"/>
<path d="M10.5918 10.5916H22.4455M10.5918 16.5184H16.5186" stroke="#D32F2F" stroke-width="2" stroke-linecap="round" stroke-linejoin="round"/>
<path d="M26.8902 27.6308L24.6677 26.8159V23.1857M18 26.1491C18 29.8316 20.9852 32.8168 24.6677 32.8168C28.3502 32.8168 31.3354 29.8316 31.3354 26.1491C31.3354 22.4666 28.3502 19.4814 24.6677 19.4814C20.9852 19.4814 18 22.4666 18 26.1491Z" fill="white"/>
<path d="M26.8902 27.6308L24.6677 26.8159V23.1857M18 26.1491C18 29.8316 20.9852 32.8168 24.6677 32.8168C28.3502 32.8168 31.3354 29.8316 31.3354 26.1491C31.3354 22.4666 28.3502 19.4814 24.6677 19.4814C20.9852 19.4814 18 22.4666 18 26.1491Z" stroke="#D32F2F" stroke-width="2" stroke-linecap="round" stroke-linejoin="round"/>
</svg>
